# xmcd
#
# Track frame offsets: 
#        150
#        18475
#        36289
#        46264
#        59822
#        68736
#        78333
#        100286
#        114254
#        132387
#        151951
#        166700
#        180870
#        199185
#        218837
#        227281
#        245631
#        264322
#        282185
#        300805
#
# Disc length: 4250 seconds
#
# Revision: 0
# Processed by: cddbd v1.5.2PL0 Copyright (c) Steve Scherf et al.
# Submitted via: ExactAudioCopy v1.0b3
#
DISCID=02109814
DTITLE=OST - 犀利人妻幸福秘笈 音樂圖文原聲帶
DYEAR=2010
DGENRE=Pop
TTITLE0=林凡+郁可唯 - 聽你說
TTITLE1=林凡 - 五天幾年
TTITLE2=未來是甜的 (配樂)
TTITLE3=人妻的小確幸 (配樂)
TTITLE4=我們的愛在這裡 (配樂)
TTITLE5=第三者 (配樂)
TTITLE6=林凡 - 這樣愛你好可怕
TTITLE7=人去樓空 (配樂)
TTITLE8=郁可唯 - 指望
TTITLE9=林凡 - 多情
TTITLE10=幸福覺醒 (配樂)
TTITLE11=還愛他嗎 (配樂)
TTITLE12=林凡 - 重傷
TTITLE13=瀟灑淑女 (配樂)
TTITLE14=真愛不是佔有 (配樂)
TTITLE15=林凡 - Say What You Will
TTITLE16=林凡 - 暖心
TTITLE17=五天幾年 (KALA)
TTITLE18=重傷 (KALA)
TTITLE19=指望 (KALA)
EXTD=
EXTT0=
EXTT1=
EXTT2=
EXTT3=
EXTT4=
EXTT5=
EXTT6=
EXTT7=
EXTT8=
EXTT9=
EXTT10=
EXTT11=
EXTT12=
EXTT13=
EXTT14=
EXTT15=
EXTT16=
EXTT17=
EXTT18=
EXTT19=
PLAYORDER=
